<?xml version="1.0" encoding="UTF-8"?>
<svg id="Layer_2" data-name="Layer 2" xmlns="http://www.w3.org/2000/svg" viewBox="0 0 746.86 237.96">
  <defs>
    <style>
      .cls-1 {
        fill: #fff;
      }
    </style>
  </defs>
  <g id="Layer_1-2" data-name="Layer 1">
    <g>
      <g>
        <polygon class="cls-1" points="261.59 46.58 332.47 46.58 332.47 10.13 221.34 10.13 221.34 187.33 261.59 187.33 261.59 126.32 325.89 126.32 325.89 90.88 261.59 90.88 261.59 46.58"/>
        <path class="cls-1" d="M426.38,102.78l-12.06,34-14.77-34-21.01-48.35h-42.53l59.8,128.65-1.58,4.5c-1.52,4.56-3.29,8.06-5.32,10.51-2.03,2.44-4.6,4.18-7.72,5.19-3.12,1.01-7.3,1.52-12.53,1.52h-15.19v33.16h17.97c10.46,0,19.03-1.01,25.69-3.04,6.66-2.03,12.28-5.53,16.83-10.51,4.56-4.98,8.61-12.11,12.15-21.39l59.24-148.6h-41.26l-17.72,48.35Z"/>
        <rect class="cls-1" x="496.5" width="38.48" height="187.33"/>
        <path class="cls-1" d="M664.08,59.74c-11.39-5.91-24.35-8.86-38.86-8.86s-27.21,2.95-38.6,8.86c-11.39,5.91-20.21,14.14-26.45,24.68-6.25,10.55-9.37,22.66-9.37,36.33s3.12,25.82,9.37,36.45c6.24,10.63,15.06,18.9,26.45,24.81,11.39,5.91,24.26,8.86,38.6,8.86s27.47-2.95,38.86-8.86c11.39-5.91,20.21-14.18,26.45-24.81,6.24-10.63,9.37-22.78,9.37-36.45s-3.12-25.78-9.37-36.33c-6.25-10.55-15.06-18.77-26.45-24.68ZM657.37,139.86c-3.04,5.66-7.34,10.04-12.91,13.16-5.57,3.12-11.9,4.68-18.99,4.68s-13.67-1.56-19.24-4.68c-5.57-3.12-9.87-7.47-12.91-13.04-3.04-5.57-4.56-11.9-4.56-18.99s1.52-13.71,4.56-19.37c3.04-5.65,7.34-10.04,12.91-13.16,5.57-3.12,11.9-4.68,18.99-4.68s13.67,1.56,19.24,4.68c5.57,3.12,9.87,7.51,12.91,13.16,3.04,5.66,4.56,12.02,4.56,19.11s-1.52,13.46-4.56,19.11Z"/>
        <path class="cls-1" d="M743.83,155.56c-2.03-3.46-4.81-6.2-8.35-8.23-3.54-2.03-7.59-3.04-12.15-3.04-6.92,0-12.57,2.15-16.96,6.46-4.39,4.3-6.58,9.83-6.58,16.58,0,4.39.97,8.31,2.91,11.77,1.94,3.46,4.68,6.16,8.23,8.1,3.54,1.94,7.68,2.91,12.4,2.91,6.92,0,12.57-2.15,16.96-6.46,4.39-4.3,6.58-9.75,6.58-16.33,0-4.39-1.01-8.31-3.04-11.77Z"/>
      </g>
      <rect class="cls-1" x="71.21" y="65.75" width="36.4" height="65.95"/>
      <g>
        <polygon class="cls-1" points="0 10.13 0 46.52 0 150.93 0 187.33 36.4 187.33 65.95 187.33 65.95 150.93 36.4 150.93 36.4 46.52 65.95 46.52 65.95 10.13 36.4 10.13 0 10.13"/>
        <polygon class="cls-1" points="142.41 10.13 112.86 10.13 112.86 46.52 142.41 46.52 142.41 150.93 112.86 150.93 112.86 187.33 142.41 187.33 178.81 187.33 178.81 150.93 178.81 46.52 178.81 10.13 142.41 10.13"/>
      </g>
    </g>
  </g>
</svg>